<?xml version="1.0" encoding="UTF-8"?>
<!DOCTYPE svg PUBLIC "-//W3C//DTD SVG 1.1//EN" "http://www.w3.org/Graphics/SVG/1.1/DTD/svg11.dtd">
<!-- Creator: CorelDRAW Home & Student 2019 -->
<svg xmlns="http://www.w3.org/2000/svg" xml:space="preserve" width="16px" height="16px" version="1.1" style="shape-rendering:geometricPrecision; text-rendering:geometricPrecision; image-rendering:optimizeQuality; fill-rule:evenodd; clip-rule:evenodd"
viewBox="0 0 16 16"
 xmlns:xlink="http://www.w3.org/1999/xlink">
 <defs>
  <style type="text/css">
   <![CDATA[
    .fil0 {fill:yellow}
    .fil1 {fill:black;fill-rule:nonzero}
   ]]>
  </style>
 </defs>
 <g id="Layer_x0020_1">
  <metadata id="CorelCorpID_0Corel-Layer"/>
  <g id="_894017856">
   <circle class="fil0" cx="8" cy="8" r="8"/>
   <polygon class="fil1" points="6.2,10.7 3.21,10.7 3.21,5.3 4.11,5.3 4.11,9.95 6.2,9.95 "/>
   <path id="1" class="fil1" d="M12.79 10.7l-0.89 0 0 -3.5c0,-0.28 0.02,-0.63 0.05,-1.05l-0.01 0c-0.06,0.24 -0.11,0.41 -0.15,0.51l-1.61 4.04 -0.62 0 -1.62 -4.01c-0.04,-0.12 -0.09,-0.3 -0.14,-0.54l-0.02 0c0.02,0.22 0.03,0.57 0.03,1.06l0 3.49 -0.83 0 0 -5.4 1.27 0 1.42 3.6c0.11,0.27 0.18,0.48 0.21,0.62l0.02 0c0.09,-0.29 0.17,-0.5 0.22,-0.64l1.45 -3.58 1.22 0 0 5.4z"/>
  </g>
 </g>
</svg>
