<?xml version="1.0" encoding="UTF-8"?>
<!DOCTYPE svg PUBLIC "-//W3C//DTD SVG 1.1//EN" "http://www.w3.org/Graphics/SVG/1.1/DTD/svg11.dtd">
<!-- Creator: CorelDRAW Home & Student 2019 -->
<svg xmlns="http://www.w3.org/2000/svg" xml:space="preserve" width="2000px" height="600px" version="1.1" style="shape-rendering:geometricPrecision; text-rendering:geometricPrecision; image-rendering:optimizeQuality; fill-rule:evenodd; clip-rule:evenodd"
viewBox="0 0 2000 600"
 xmlns:xlink="http://www.w3.org/1999/xlink">
 <defs>
  <style type="text/css">
   <![CDATA[
    .fil1 {fill:yellow}
    .fil0 {fill:#E6E6E6;fill-rule:nonzero}
   ]]>
  </style>
 </defs>
 <g id="Layer_x0020_1">
  <metadata id="CorelCorpID_0Corel-Layer"/>
  <polygon class="fil0" points="0,551.84 0,39.37 35.14,39.37 35.14,519.63 240.86,519.63 240.86,551.84 "/>
  <path id="1" class="fil0" d="M336.04 370.28c0,50.27 11.59,89.56 34.89,117.87 23.19,28.31 55.03,42.46 95.54,42.46 40.88,0 80.9,-15.13 119.95,-45.39l0 35.02c-37.83,26.97 -80.17,40.39 -126.9,40.39 -47.1,0 -85.29,-16.96 -114.33,-50.76 -29.04,-33.8 -43.56,-81.51 -43.56,-143.25 0,-53.32 15.25,-98.22 45.63,-134.83 30.39,-36.48 69.8,-54.79 118.48,-54.79 45.52,0 80.41,15.99 104.69,47.84 24.29,31.96 36.49,75.53 36.49,130.8l0 14.64 -270.88 0zm236.47 -30.01c-1.47,-42.1 -11.59,-74.92 -30.38,-98.23 -18.79,-23.31 -44.78,-35.02 -77.85,-35.02 -34.29,0 -62.72,11.47 -85.17,34.53 -22.45,22.94 -36.36,55.89 -41.61,98.72l235.01 0z"/>
  <path id="2" class="fil0" d="M1149.29 551.84l0 -363.85c0,-8.79 1.34,-33.92 3.9,-75.41l-1.34 0c-7.44,19.4 -13.66,34.29 -18.67,44.66l-182.41 394.6 -11.47 0 -183.15 -392.41c-5.98,-12.56 -11.6,-28.67 -16.84,-48.19l-1.83 0c1.71,22.81 2.56,45.63 2.56,68.21l0 372.39 -35.14 0 0 -512.47 32.58 0 191.44 412.79c1.22,2.31 2.57,5.61 3.91,9.63 1.46,4.03 3.05,8.06 4.64,12.09 2.44,6.22 4.88,13.17 7.56,20.74l2.2 0 3.9 -11.35c0.25,-0.98 4.27,-12.32 12.08,-34.04l188.64 -409.86 31.12 0 0 512.47 -33.68 0z"/>
  <path id="3" class="fil0" d="M1454.46 560.63c-53.45,0 -95.67,-17.57 -126.78,-52.71 -31.11,-35.14 -46.61,-80.78 -46.61,-136.91 0,-60.76 16.23,-108.23 48.81,-142.51 32.45,-34.29 75.28,-51.5 128.48,-51.5 52.1,0 93.35,17.09 123.61,51.13 30.26,34.04 45.39,81.14 45.39,141.42 0,56.86 -15.38,102.98 -46.25,138.25 -30.87,35.26 -73.09,52.83 -126.65,52.83zm2.44 -353.61c-43.08,0 -77.48,14.52 -102.99,43.56 -25.62,29.04 -38.43,69.43 -38.43,121.04 0,47.96 12.44,86.39 37.46,115.43 25.01,29.04 59.18,43.56 102.49,43.56 44.05,0 77.97,-14.27 101.77,-42.82 23.79,-28.56 35.75,-68.21 35.75,-118.97 0,-52.1 -11.84,-92.13 -35.51,-120.07 -23.67,-27.82 -57.23,-41.73 -100.54,-41.73z"/>
  <path id="4" class="fil0" d="M1967.06 551.84l0 -212.92c0,-87.97 -31.73,-131.9 -95.18,-131.9 -35.26,0 -64.18,12.93 -86.88,38.8 -22.57,25.87 -33.92,57.84 -33.92,95.91l0 210.11 -32.94 0 0 -366.05 32.94 0 0 66.62 1.47 0c26.72,-50.27 68.45,-75.41 125.19,-75.41 39.53,0 69.79,13.18 90.78,39.54 20.99,26.23 31.48,63.81 31.48,112.74l0 222.56 -32.94 0z"/>
  <circle class="fil1" cx="1455.45" cy="358.18" r="202.45"/>
 </g>
</svg>
